<?xml version="1.0" encoding="UTF-8"?>
<svg width="2000px" height="2000px" viewBox="0 0 2000 2000" version="1.1" xmlns="http://www.w3.org/2000/svg" xmlns:xlink="http://www.w3.org/1999/xlink">
    <title>weeds-correct</title>
    <g id="weeds-correct" stroke="none" stroke-width="1" fill="none" fill-rule="evenodd">
        <g id="Group-2" transform="translate(11, 125)">
            <ellipse id="Oval" fill-opacity="0.15" fill="#000000" cx="468.5" cy="999.966467" rx="468.5" ry="204.033533"></ellipse>
            <g id="Group-3" transform="translate(46, 0)" fill="#AF9152">
                <path d="M169.13193,474 C144.13193,494 66.1319303,553 51.1319303,541 C36.1319303,529 41.1319303,408 55.1319303,408 C69.1319303,408 194.13193,454 169.13193,474 Z" id="Path-4"></path>
                <path d="M1062.13193,258 C1037.13193,278 959.13193,337 944.13193,325 C929.13193,313 934.13193,192 948.13193,192 C962.13193,192 1087.13193,238 1062.13193,258 Z" id="Path-4"></path>
                <path d="M734.13193,113 C709.13193,133 631.13193,192 616.13193,180 C601.13193,168 606.13193,47 620.13193,47 C634.13193,47 759.13193,93 734.13193,113 Z" id="Path-4"></path>
                <path d="M506.13193,93 C481.13193,113 403.13193,172 388.13193,160 C373.13193,148 378.13193,27 392.13193,27 C406.13193,27 531.13193,73 506.13193,93 Z" id="Path-4" transform="translate(444.2136, 94.2975) rotate(75) translate(-444.2136, -94.2975)"></path>
                <path d="M127.13193,66 C102.13193,86 24.1319303,145 9.1319303,133 C-5.8680697,121 -0.868069695,0 13.1319303,0 C27.1319303,0 152.13193,46 127.13193,66 Z" id="Path-4"></path>
                <path d="M828.13193,651 C803.13193,671 725.13193,730 710.13193,718 C695.13193,706 700.13193,585 714.13193,585 C728.13193,585 853.13193,631 828.13193,651 Z" id="Path-4" transform="translate(766.2136, 652.2975) rotate(-31) translate(-766.2136, -652.2975)"></path>
            </g>
            <g id="Group" transform="translate(52, 47)">
                <path d="M388.102362,994.237126 C527.613387,994.237126 751.245858,982.675075 751.245858,893.975838 C751.245858,814.420359 562.736275,808.390112 539,785 C377.102362,625.463434 461,472 415,413 C369,354 350.440367,736.639908 157,785 C26.3333333,817.666667 -24.6666667,853.991946 4,893.975838 C25.9503778,958.80512 248.534374,994.237126 388.102362,994.237126 Z" id="Oval-3" fill="#AF9152"></path>
                <path d="M319,791 C383.997428,503.062858 433.719236,321.397152 468.165426,246.00288 C504.246465,167.030326 683.212861,69.6129946 793.165426,90.0028802 C901,110 928.165426,200.098311 928.165426,286.00288 C928.165426,395 872,512 793.165426,537 C656.868052,580.222589 596.165426,521.00576 596.165426,450.00288 C596.165426,402.667627 626.338211,366 686.68378,340" id="Line" stroke="#C7A55C" stroke-width="60" stroke-linecap="round"></path>
                <path d="M154.692939,812 C34.913416,440.062858 -7.75325066,216.397152 26.6929393,141.00288 C62.7739778,62.0303262 184.008187,-17.6997531 294.693773,4 C396.694608,23.9971198 444.693773,95.3639666 444.693773,181.00288 C444.693773,217 457.694608,318.99712 366.693773,364 C270.546362,411.54803 213.693773,406.190878 183.693773,325 C163.693773,270.872748 184.83273,222.873708 247.110643,181.00288" id="Line" stroke="#C7A55C" stroke-width="60" stroke-linecap="round" transform="translate(231.3469, 406.1909) scale(-1, 1) translate(-231.3469, -406.1909)"></path>
                <path d="M407,590 C407,696 501,885 440,885 C399.333333,885 350.666667,868 294,834 C369.333333,619.621083 407,538.28775 407,590 Z" id="Path-2" fill="#C7A55C"></path>
            </g>
        </g>
        <g id="Group-2" transform="translate(885, 740)">
            <ellipse id="Oval" fill-opacity="0.15" fill="#000000" cx="468.5" cy="999.966467" rx="468.5" ry="204.033533"></ellipse>
            <g id="Group-3" transform="translate(46, 0)" fill="#AF9152">
                <path d="M169.13193,474 C144.13193,494 66.1319303,553 51.1319303,541 C36.1319303,529 41.1319303,408 55.1319303,408 C69.1319303,408 194.13193,454 169.13193,474 Z" id="Path-4"></path>
                <path d="M1062.13193,258 C1037.13193,278 959.13193,337 944.13193,325 C929.13193,313 934.13193,192 948.13193,192 C962.13193,192 1087.13193,238 1062.13193,258 Z" id="Path-4"></path>
                <path d="M734.13193,113 C709.13193,133 631.13193,192 616.13193,180 C601.13193,168 606.13193,47 620.13193,47 C634.13193,47 759.13193,93 734.13193,113 Z" id="Path-4"></path>
                <path d="M506.13193,93 C481.13193,113 403.13193,172 388.13193,160 C373.13193,148 378.13193,27 392.13193,27 C406.13193,27 531.13193,73 506.13193,93 Z" id="Path-4" transform="translate(444.2136, 94.2975) rotate(75) translate(-444.2136, -94.2975)"></path>
                <path d="M127.13193,66 C102.13193,86 24.1319303,145 9.1319303,133 C-5.8680697,121 -0.868069695,0 13.1319303,0 C27.1319303,0 152.13193,46 127.13193,66 Z" id="Path-4"></path>
                <path d="M828.13193,651 C803.13193,671 725.13193,730 710.13193,718 C695.13193,706 700.13193,585 714.13193,585 C728.13193,585 853.13193,631 828.13193,651 Z" id="Path-4" transform="translate(766.2136, 652.2975) rotate(-31) translate(-766.2136, -652.2975)"></path>
            </g>
            <g id="Group" transform="translate(52, 47)">
                <path d="M388.102362,994.237126 C527.613387,994.237126 751.245858,982.675075 751.245858,893.975838 C751.245858,814.420359 562.736275,808.390112 539,785 C377.102362,625.463434 461,472 415,413 C369,354 350.440367,736.639908 157,785 C26.3333333,817.666667 -24.6666667,853.991946 4,893.975838 C25.9503778,958.80512 248.534374,994.237126 388.102362,994.237126 Z" id="Oval-3" fill="#AF9152"></path>
                <path d="M319,791 C383.997428,503.062858 433.719236,321.397152 468.165426,246.00288 C504.246465,167.030326 683.212861,69.6129946 793.165426,90.0028802 C901,110 928.165426,200.098311 928.165426,286.00288 C928.165426,395 872,512 793.165426,537 C656.868052,580.222589 596.165426,521.00576 596.165426,450.00288 C596.165426,402.667627 626.338211,366 686.68378,340" id="Line" stroke="#C7A55C" stroke-width="60" stroke-linecap="round"></path>
                <path d="M154.692939,812 C34.913416,440.062858 -7.75325066,216.397152 26.6929393,141.00288 C62.7739778,62.0303262 184.008187,-17.6997531 294.693773,4 C396.694608,23.9971198 444.693773,95.3639666 444.693773,181.00288 C444.693773,217 457.694608,318.99712 366.693773,364 C270.546362,411.54803 213.693773,406.190878 183.693773,325 C163.693773,270.872748 184.83273,222.873708 247.110643,181.00288" id="Line" stroke="#C7A55C" stroke-width="60" stroke-linecap="round" transform="translate(231.3469, 406.1909) scale(-1, 1) translate(-231.3469, -406.1909)"></path>
                <path d="M407,590 C407,696 501,885 440,885 C399.333333,885 350.666667,868 294,834 C369.333333,619.621083 407,538.28775 407,590 Z" id="Path-2" fill="#C7A55C"></path>
            </g>
        </g>
    </g>
</svg>