<?xml version="1.0" standalone="no"?><!DOCTYPE svg PUBLIC "-//W3C//DTD SVG 1.1//EN" "http://www.w3.org/Graphics/SVG/1.1/DTD/svg11.dtd"><svg t="1717217850559" class="icon" viewBox="0 0 1024 1024" version="1.1" xmlns="http://www.w3.org/2000/svg" p-id="2090" xmlns:xlink="http://www.w3.org/1999/xlink" width="200" height="200"><path d="M548.320057 18.170101c1.426212 3.311712 34.603768 81.890348 0.132952 147.028749-20.406111 38.564125-59.892842 63.724276-117.348231 74.779432a10.072118 10.072118 0 0 1-3.81129-19.78164c51.118013-9.830387 85.86682-31.473354 103.299642-64.320545 29.98671-56.516668-0.463317-129.007715-0.773539-129.732908l0.004029 0.008058a10.072118 10.072118 0 1 1 18.496437-7.981146z" fill="#6E6E96" p-id="2091"></path><path d="M512.165183 107.006181l0.032231-0.024173c-0.197414 0.165183-19.660774 16.542447-20.748563 39.760693-0.709077 15.116235 6.518675 30.365421 21.473755 45.32453a10.06406 10.06406 0 0 1 0 14.241975 10.06406 10.06406 0 0 1-14.241975 0c-19.209543-19.209543-28.407401-39.647885-27.339757-60.746958 1.627654-32.218691 27.01342-53.285533 28.097181-54.163821a10.076147 10.076147 0 0 1 14.173484 1.43427 10.076147 10.076147 0 0 1-1.446356 14.173484zM648.40065 112.976932c-10.479032 30.441969-48.338108 83.465627-116.671385 66.258421a10.068089 10.068089 0 0 1-7.3043-12.227551 10.06406 10.06406 0 0 1 12.219493-7.308329c67.334123 16.957418 91.712677-50.421022 92.71586-53.297619l-0.008057 0.020144a10.072118 10.072118 0 1 1 19.048389 6.554934zM632.631742 41.207049c-0.950808 2.779905-24.165025 68.123777-78.784106 68.091546a10.072118 10.072118 0 1 1 0.012086-20.144236c40.215953 0.024173 59.546361-53.99461 59.735717-54.542533 0.14101-0.406914 0.31425-0.817856 0.507635-1.200596l-0.511664 1.216711a10.06406 10.06406 0 0 1 12.807706-6.228597c5.261674 1.812981 8.057694 7.546031 6.232626 12.807705z" fill="#6E6E96" p-id="2092"></path><path d="M387.923594 685.903174c-15.631927-21.518073 103.609863 4.145684 94.508697 59.006496-14.016359 84.460752-27.60969 82.466473-30.482258 111.421797-5.028001 50.74333-12.453167 94.355601-17.247495 114.310481-4.637203 19.245803-10.366224 21.566419-18.818745 21.566419-9.258291 0-14.185571-2.385078-16.687485-21.538217-4.673463-35.85674-0.813827-135.695602-0.813827-171.931053 0-55.598091 14.241975-78.84051-10.458887-112.835923z" fill="#E3B334" p-id="2093"></path><path d="M437.575106 957.193656h-39.571337c0.306192 5.06829 0.696991 9.693406 1.192539 13.484552 2.501914 19.153139 7.429194 21.534188 16.683456 21.534188 8.448493 0 14.181542-2.304501 18.818745-21.570448 0.87426-3.642078 1.861327-8.323598 2.876597-13.448292z" fill="#6E6E96" p-id="2094"></path><path d="M421.383169 682.228865c-16.244312 2.501914-29.793325 8.516983-29.793325 8.516983s41.609934 60.605948 41.609934 92.917303c0 32.299268-0.858144 207.747505-17.291812 207.940889 8.436406-0.004029 14.161398-2.336731 18.794572-21.566419 4.790299-19.95488 12.215465-63.567151 17.243466-114.310481 2.360904-23.778256 11.949561-26.727372 23.06515-73.780278 1.615568-25.86117 2.143347-48.305878 0.785625-62.918507-0.092663-0.987068-0.253817-1.881472-0.378711-2.820193-11.542647-16.38935-34.378153-28.040776-54.034899-33.979297z" fill="#6E6E96" opacity=".15" p-id="2095"></path><path d="M768.565046 805.354464l-75.420019-95.096909-71.790028 38.51175s14.918821 44.704088 98.054082 58.81714v157.310367c0 18.359457 8.750656 20.228842 17.50937 22.001534 10.354137 2.070827 17.988803-1.953991 23.584872-23.472063 13.359657-51.263051 17.537572-154.85277 17.537571-154.85277l-9.475848-3.219049z" fill="#E3B334" p-id="2096"></path><path d="M778.036866 808.569484l-9.475849-3.21502-17.710812-22.327871-65.613805-47.42356c0 42.302895 71.512037 89.64185 71.512037 89.641849s-2.014424 101.728391-8.057694 134.966381c-6.035213 33.197701-28.350998 13.48858-28.403373 13.440234 2.433424 10.301762 9.520166 11.808551 16.623024 13.242821 10.354137 2.070827 17.988803-1.953991 23.584871-23.472064 13.367715-51.263051 17.541601-154.85277 17.541601-154.85277z" fill="#6E6E96" opacity=".15" p-id="2097"></path><path d="M877.368093 534.450751c33.088922-8.59756 29.289719-25.313247 29.595911-11.099474 0.31425 14.229888-3.376174 49.768349-40.95726 62.576054-14.000244-0.064462-25.671814-11.631282-26.062613-25.841026-0.390798-14.193629 7.683012-17.908226 37.423962-25.635554z" fill="#FFD569" p-id="2098"></path><path d="M764.290439 945.99749h-44.885386v18.891264c0 18.359457 8.750656 20.228842 17.509369 22.001535 10.354137 2.070827 17.980745-1.953991 23.584872-23.472064 1.385923-5.318078 2.638895-11.196166 3.791145-17.412677v-0.008058z" fill="#6E6E96" p-id="2099"></path><path d="M481.288098 413.91973L348.227362 525.965999v72.23723s10.507233 150.570105 206.599283 150.570105h147.214076c128.50411 0-4.347126 15.503004-131.686899-27.770844-146.754787 0-156.955828-102.800065-167.136725-140.127333-25.317276-92.780322 11.897186-107.985191 74.549789-121.082973 0.813827-3.871722 1.92176-7.892512 3.521212-12.171147 3.754886-10.035858 6.385723-18.665649 8.194675-26.159305-3.380203-6.599252-8.194675-7.542002-8.194675-7.542002z" fill="#E3B334" p-id="2100"></path><path d="M408.406253 595.810093c-13.73434-65.235093 71.765855-110.12048 71.765854-110.120479-176.644804 16.768062-71.765855 110.12048-71.765854 110.120479z" fill="#E3B334" p-id="2101"></path><path d="M481.288098 374.094576s25.772535 4.665405 0 73.534518c-30.345277 81.084578 87.54282 87.54282 87.54282 87.542821h182.091806s83.167492-4.375328 98.050054 84.037723c9.213973 54.723831 0.918577 88.384849-8.444464 107.646767-4.447847 17.722899-6.550906 40.908914 6.873213 54.663399 7.481569 4.661376 11.889128 5.918377 18.818745 12.843965 11.852868 11.844811 8.565329 32.613518 8.561301 32.637691h0.004029s-1.418154 85.169829-14.773783 136.416765c-5.616213 21.52613-13.234763 25.550949-23.584871 23.480121-8.758714-1.764635-17.513399-3.638049-17.513399-22.009592v-142.041036c-76.963068-12.054311-114.06875-48.132637-131.179264-74.078413h-132.637707c-17.037995 59.945217-45.787848 86.209272-48.26156 110.99474-5.03203 50.74333-12.461224 94.351572-17.255553 114.306452-4.629145 19.249832-10.366224 21.570448-18.810687 21.570448-9.266349 0-14.1896-2.37702-16.695543-21.538217-4.68152-35.85674-0.821885-135.695602-0.821885-171.931053 0-22.303698 2.292414-46.662108 6.659685-68.401768-104.870892-38.068577-111.703817-135.574736-111.703817-135.574736v-112.058355l133.08088-112.04224z" fill="#FFD569" p-id="2102"></path><path d="M553.392376 543.53983s-60.404506-15.225013-94.63762-6.019098c-44.079617 11.84884-79.319943 52.1776-28.76194 102.735603 0 0-85.778185-15.696389-68.454143-68.446084 17.324043-52.757754 74.960731-75.794702 100.116853-83.912829 25.156122-8.126185 91.73685 55.642408 91.73685 55.642408z" fill="#F2C349" p-id="2103"></path><path d="M830.762389 593.284006s42.629232 116.546491-80.66155 116.546491c-123.298839 0-341.698615-24.165025-341.698615-114.020404v-85.048964h-61.601074s-7.844165 86.201214 17.662466 140.397267c30.329162 64.441411 92.026927 81.334367 92.026928 103.517199-6.949761 37.32324-3.589703 205.958696-3.589703 205.958697h39.599539l15.853513-108.384047 46.750743-103.476911h132.629649s40.280414 68.276873 131.187322 74.078413v123.141714l44.889415 0.008058s20.297332-109.516153 7.3043-144.772595c-13.00109-35.256442-52.935023-9.22606-22.718669-99.875121s-17.634264-108.069797-17.634264-108.069797z" fill="#F2C349" p-id="2104"></path><path d="M492.476207 960.63832h-39.575366c0.318279 5.064261 0.701019 9.685349 1.192539 13.476494 2.505943 19.161197 7.433223 21.538217 16.691513 21.538217 8.448493 0 14.181542-2.304501 18.810688-21.570448a361.750188 361.750188 0 0 0 2.884654-13.45232l-0.004028 0.008057zM863.798935 945.99749h-44.889415v18.891264c0 18.359457 8.754685 20.228842 17.513399 22.001535 10.34608 2.070827 17.980745-1.953991 23.584871-23.472064 1.385923-5.318078 2.634866-11.196166 3.783088-17.412677v-0.008058h0.008057zM239.666046 51.649821l0.008058-0.016116c-2.348818 4.177915-56.419976 103.182805 45.731444 179.279671a10.072118 10.072118 0 0 1-12.030137 16.155677C156.740285 160.182935 221.487888 42.874992 222.152648 41.698568a10.072118 10.072118 0 0 1 17.513398 9.951253z" fill="#6E6E96" p-id="2105"></path><path d="M156.937698 53.837485v-0.056404c-0.012087 2.018452 0.423029 49.607195 59.445641 65.114228a10.072118 10.072118 0 1 1-5.124694 19.483505C136.600078 118.762357 136.785405 54.159793 136.793463 53.511148a10.076147 10.076147 0 0 1 20.144235 0.326337zM140.620867 125.651686l-0.004028-0.016116c0.128923 0.370654 13.347571 37.210433 42.036991 50.775561 13.536927 6.401838 28.782084 6.599252 45.300358 0.580154a10.072118 10.072118 0 1 1 6.893357 18.927524c-21.80815 7.948915-42.310953 7.489627-60.928256-1.353692-36.332144-17.259581-51.690109-60.468967-52.322638-62.302093a10.072118 10.072118 0 1 1 19.024216-6.611338zM267.775313 109.56047c1.091818 1.08376 26.691113 26.896584 26.759603 62.201372 0.03626 21.155477-8.956127 40.896828-26.731401 58.672101a10.06406 10.06406 0 0 1-14.241975 0 10.06406 10.06406 0 0 1 0-14.241975c45.558204-45.558204 1.8855-90.467763 0.004029-92.357292l0.024173 0.020144a10.068089 10.068089 0 1 1 14.185571-14.29435z" fill="#6E6E96" p-id="2106"></path><path d="M378.858687 202.497917c88.477513 0 160.207108 71.725566 160.207108 160.207108 0 88.473484-71.729595 160.211137-160.207108 160.211136-191.716722 0-264.433384-160.211137-175.955871-160.211136 81.406886 0 5.249588-160.207108 175.955871-160.207108z" fill="#F2C349" p-id="2107"></path><path d="M369.282118 208.472697c43.406799 0 81.668761 21.993477 104.254478 55.440966a124.922464 124.922464 0 0 1 15.253215 31.159104c4.028847 12.308128 6.208453 25.454256 6.208454 39.112048 0 69.429123-56.718111 117.972703-125.716147 125.716148-108.432393 12.171147-271.189761-78.260356-158.591541-94.770572 10.015714-1.4665 42.375415 19.680918 48.797397 15.035657 6.385723-4.617059-27.521055-13.045407-13.037349-41.891953 23.419689-46.645993 16.151648-129.797369 122.831493-129.801398z" fill="#FFD569" p-id="2108"></path><path d="M276.002219 381.632549s-1.595423 33.656989-24.003871 21.078928-72.938249-4.866847-51.524927 16.538418c0 0-34.055845-14.934936-34.055845-51.230821l58.285332-10.789253c0 0.004029 31.026152 24.402727 51.299311 24.402728z" fill="#F2C349" p-id="2109"></path><path d="M160.88194 360.074187m-28.886834 0a28.886834 28.886834 0 1 0 57.773668 0 28.886834 28.886834 0 1 0-57.773668 0Z" fill="#6E6E96" p-id="2110"></path><path d="M760.676563 613.037444a17.698726 11.25257 0 1 0 35.397451 0 17.698726 11.25257 0 1 0-35.397451 0Z" fill="#FFF7E0" p-id="2111"></path><path d="M635.85482 640.377201a31.042267 16.087187 0 1 0 62.084535 0 31.042267 16.087187 0 1 0-62.084535 0Z" fill="#FFF7E0" p-id="2112"></path><path d="M599.820811 580.053272a11.260628 5.624271 0 1 0 22.521255 0 11.260628 5.624271 0 1 0-22.521255 0Z" fill="#FFF7E0" p-id="2113"></path><path d="M694.720306 583.268292a13.677936 5.624271 0 1 0 27.355872 0 13.677936 5.624271 0 1 0-27.355872 0Z" fill="#FFF7E0" p-id="2114"></path><path d="M574.742068 633.048385a20.974178 9.01656 17.215 1 0-40.069108-12.414957 20.974178 9.01656 17.215 1 0 40.069108 12.414957Z" fill="#FFF7E0" p-id="2115"></path><path d="M523.460681 577.200194a13.66585 9.653118 18.844 1 0-25.866761-8.827936 13.66585 9.653118 18.844 1 0 25.866761 8.827936Z" fill="#FFF7E0" p-id="2116"></path><path d="M334.88382 319.116927m-34.414412 0a34.414413 34.414413 0 1 0 68.828825 0 34.414413 34.414413 0 1 0-68.828825 0Z" fill="#F2C349" p-id="2117"></path><path d="M503.861729 203.158648c93.565947-13.613475 148.857845 18.69788 148.857845 18.697879l-1.252971 0.644616c2.618751 1.647798 4.343097 3.706539 4.915193 6.2568 4.435761 19.825957-61.524525 59.828381-100.096708 70.025392-63.925718 16.901014-89.39609-11.244512-102.872584-31.058383-1.0475-1.53902-0.495548 1.772693 0 0-16.4941-21.800092-15.97035-54.905129 50.449225-64.566304z" fill="#F2C349" p-id="2118"></path><path d="M332.700185 321.300562m-14.100965 0a14.100965 14.100965 0 1 0 28.20193 0 14.100965 14.100965 0 1 0-28.20193 0Z" fill="#6E6E96" p-id="2119"></path><path d="M562.36059 286.426861s104.762113-32.275095 0-46.37606c-104.766142-14.100965-94.597332 27.734584-77.357895 44.97805 0 0-72.221114-26.31643-27.408247-59.079015 44.812867-32.762585 154.18801-30.663556 188.928759 4.782242 34.740749 35.445797 0.427058 5.289876 0.427058 5.289876s-53.26136 50.404907-84.589675 50.404907z" fill="#6E6E96" opacity=".15" p-id="2120"></path><path d="M368.975925 380.053241c0 8.343743-13.9801 7.050483-31.223565 7.050482-17.243466 0-31.223566 1.29326-31.223566-7.050482s13.9801-15.108177 31.223566-15.108177c17.243466 0 31.223566 6.764434 31.223565 15.108177z" fill="#FFFFFF" opacity=".43" p-id="2121"></path><path d="M507.302364 738.286245s2.014424 83.932973-14.773782 100.721179c-13.238792 13.238792-4.258491 73.457971-11.590994 121.622839h11.562792l15.857542-108.384047c21.775919-32.484595 37.891308-68.744219 46.750743-103.476911-0.004029 0.004029-37.065394 0.261875-47.806301-10.48306z m47.802272 10.487089h8.114098c-4.701665-0.817856-8.114098 0-8.114098 0z" fill="#E3B334" p-id="2122"></path><path d="M871.115322 801.232953c-6.18428-16.772091-18.456149-19.688976-26.380891-27.883651 4.177915 5.301963 10.777166 21.31663 10.777166 69.598335 0 37.979942-0.958866 75.996144-5.608156 103.049853l13.903552 0.004029s20.297332-109.512124 7.308329-144.768566z m-29.732892-30.506431s0.842029 0.100721 2.107087 1.261029a23.3794 23.3794 0 0 1-0.962895-1.252971c-0.38274 0.004029-0.761452-0.008058-1.144192-0.008058z" fill="#6E6E96" opacity=".15" p-id="2123"></path></svg>