<svg id="loading" version="1.1" xmlns="http://www.w3.org/2000/svg" width="234.201" height="68.94">
    <defs>
        <clipPath id="text-cut">
            <path d="M 205.5 68.937 Q 202.425 68.937 200.213 67.287 Q 198 65.637 198 62.862 Q 198 60.687 199.313 59.15 Q 200.625 57.612 202.575 57.612 Q 203.475 57.612 203.85 57.912 Q 204.225 58.212 204.45 58.587 Q 205.05 59.562 205.838 60.275 Q 206.625 60.987 207.975 60.987 Q 209.775 60.987 211.463 59.712 Q 213.15 58.437 214.575 56.787 Q 215.85 55.362 217.65 52.7 Q 219.45 50.037 221.25 46.662 Q 219.6 48.087 218.175 48.725 Q 216.75 49.362 215.475 49.362 Q 213.9 49.362 212.4 48.2 A 6.074 6.074 0 0 1 210.553 44.036 A 15.073 15.073 0 0 1 210.525 43.812 Q 210.3 41.337 209.663 38.337 Q 209.025 35.337 208.088 32.525 Q 207.15 29.712 205.8 27.762 Q 205.275 26.862 204.6 26.412 Q 203.925 25.962 202.65 25.812 Q 201.75 25.737 201.488 25.287 Q 201.225 24.837 201.225 23.862 Q 201.225 21.162 202.725 19.512 Q 204.225 17.862 206.775 17.862 Q 209.85 17.862 211.2 20.225 Q 212.55 22.587 213.525 25.962 Q 213.9 27.312 214.313 29.525 Q 214.725 31.737 215.063 34.287 Q 215.4 36.837 215.55 39.162 Q 215.625 40.812 217.425 40.812 Q 219.825 40.812 222 39.312 Q 224.175 37.812 225.563 35.412 Q 226.95 33.012 226.95 30.387 Q 226.95 28.887 226.575 27.687 Q 226.2 26.487 225.3 25.587 Q 224.55 24.687 224.1 24.125 Q 223.65 23.562 223.65 22.812 Q 223.65 21.537 224.85 20.412 Q 226.05 19.287 227.738 18.537 Q 229.425 17.787 230.7 17.787 Q 232.95 17.787 233.7 19.925 Q 234.45 22.062 234.075 24.612 A 57.286 57.286 0 0 1 232.441 32.342 A 92.793 92.793 0 0 1 232.275 32.937 Q 230.925 37.737 228.788 42.987 Q 226.65 48.237 223.913 53.15 Q 221.175 58.062 218.1 61.737 Q 215.475 64.962 212.25 66.95 Q 209.025 68.937 205.5 68.937 Z M 141.075 32.487 L 141.3 32.562 Q 142.8 28.587 144.938 25.175 Q 147.075 21.762 149.925 19.662 Q 152.775 17.562 156.525 17.562 Q 160.5 17.562 162.6 19.962 Q 164.7 22.362 164.7 25.962 Q 164.7 27.462 164.363 28.812 Q 164.025 30.162 163.65 31.437 Q 163.275 32.637 163.013 33.912 Q 162.75 35.187 162.75 36.462 Q 162.75 40.737 166.8 42.237 Q 167.85 42.687 167.85 43.587 Q 167.85 44.262 167.4 45.537 Q 166.95 46.812 165.75 47.9 Q 164.55 48.987 162.225 48.987 Q 159.225 48.987 157.575 46.85 Q 155.925 44.712 155.925 41.412 Q 155.925 39.537 156.338 37.625 Q 156.75 35.712 157.2 34.062 Q 157.5 32.787 157.763 31.55 Q 158.025 30.312 158.025 29.337 Q 158.025 25.887 154.425 25.887 Q 151.35 25.887 149.025 28.175 Q 146.7 30.462 145.05 33.912 Q 143.4 37.362 142.35 40.887 L 142.35 42.687 Q 142.35 45.462 140.813 47.262 Q 139.275 49.062 136.65 49.062 Q 133.95 49.062 134.25 47.262 Q 135.075 44.037 135.638 40.7 Q 136.2 37.362 136.2 34.287 Q 136.2 30.312 135.713 28.475 Q 135.225 26.637 134.4 25.925 Q 133.575 25.212 132.375 24.837 Q 131.85 24.612 131.438 24.237 Q 131.025 23.862 131.025 23.187 Q 131.025 22.137 131.85 20.862 Q 132.675 19.587 134.213 18.65 Q 135.75 17.712 137.7 17.712 Q 140.25 17.712 141.225 19.475 Q 142.2 21.237 142.2 24.087 Q 142.2 25.962 141.825 28.287 Q 141.45 30.612 141.075 32.487 Z M 116.925 27.012 L 116.85 25.587 A 17.071 17.071 0 0 1 116.836 24.905 A 8.232 8.232 0 0 1 118.163 19.887 Q 119.625 17.937 122.475 17.937 Q 124.95 17.937 124.95 19.512 Q 124.95 20.037 124.763 20.862 Q 124.575 21.687 124.2 22.812 Q 123.45 25.587 122.925 28.7 Q 122.4 31.812 122.4 34.437 Q 122.4 37.362 123.3 39.275 Q 124.2 41.187 126.675 41.862 Q 127.35 41.937 127.763 42.275 Q 128.175 42.612 128.175 43.662 Q 128.175 45.462 126.675 47.187 Q 125.175 48.912 122.325 48.912 A 5.275 5.275 0 0 1 116.971 43.31 A 17.371 17.371 0 0 1 116.85 41.187 A 52.6 52.6 0 0 1 117.068 37.221 A 130.035 130.035 0 0 1 117.075 37.137 L 116.925 37.062 Q 112.2 49.212 103.05 49.212 Q 99.3 49.212 97.238 47.037 Q 95.175 44.862 95.175 40.737 Q 95.175 37.812 96 34.737 Q 96.375 33.462 96.6 32.187 Q 96.825 30.912 96.825 29.637 Q 96.825 26.337 94.8 25.362 Q 92.85 24.312 92.85 23.112 Q 92.85 21.912 93.863 20.712 Q 94.875 19.512 96.375 18.725 Q 97.875 17.937 99.375 17.937 A 4.195 4.195 0 0 1 103.458 22.269 A 16.369 16.369 0 0 1 103.65 24.912 Q 103.65 27.162 103.313 29.075 Q 102.975 30.987 102.525 32.712 Q 102.225 33.912 102.038 35.112 Q 101.85 36.312 101.85 37.212 A 3.282 3.282 0 0 0 105.525 40.962 A 8.308 8.308 0 0 0 111.835 37.457 A 16.525 16.525 0 0 0 111.975 37.287 Q 114.975 33.612 116.925 27.012 Z M 25.567 47.769 A 7.554 7.554 0 0 1 23.475 46.175 Q 20.775 43.212 20.775 38.337 Q 20.775 37.062 21 35.262 Q 21.225 33.462 21.6 30.912 Q 22.2 27.237 22.5 24.35 Q 22.8 21.462 22.8 18.012 A 77.583 77.583 0 0 0 22.603 11.877 A 36.269 36.269 0 0 0 22.575 11.562 Q 21.3 12.312 20.7 12.312 Q 19.5 12.312 19.5 9.612 Q 19.5 7.512 20.438 6.05 Q 21.375 4.587 23.55 3.312 Q 25.725 1.962 29.063 0.987 Q 32.4 0.012 36.225 0.012 Q 42.45 0.012 45.675 2.862 Q 48.9 5.712 48.9 10.362 Q 48.9 13.362 47.625 15.912 Q 46.35 18.462 44.025 20.412 A 11.043 11.043 0 0 1 51.332 24.196 A 11.081 11.081 0 0 1 53.4 31.212 Q 53.4 36.237 50.55 40.362 Q 47.7 44.487 42.825 46.812 Q 38.1 49.137 32.4 49.137 A 14.694 14.694 0 0 1 25.567 47.769 Z M 35.4 40.812 A 18.784 18.784 0 0 0 41.513 39.875 Q 44.25 38.937 45.9 37.137 Q 47.55 35.337 47.55 32.937 Q 47.55 29.862 45.375 28.587 Q 43.2 27.312 40.35 27.312 Q 39.15 27.312 37.35 27.537 Q 36.6 27.687 35.625 27.687 Q 33.975 27.687 32.888 26.337 Q 31.8 24.987 31.8 22.962 Q 31.8 21.537 33.075 21.162 A 17.646 17.646 0 0 0 39.33 18.387 A 6.737 6.737 0 0 0 42.225 12.837 A 4.644 4.644 0 0 0 37.053 8.169 A 15.253 15.253 0 0 0 35.7 8.112 Q 33.3 8.112 29.775 8.937 Q 29.775 12.612 29.4 16.625 Q 29.025 20.637 28.275 24.987 Q 27.825 27.987 27.563 30.05 Q 27.3 32.112 27.3 33.387 A 7.643 7.643 0 0 0 28.907 38.727 A 4.487 4.487 0 0 0 29.325 39.125 A 9.013 9.013 0 0 0 35.025 40.808 A 18.767 18.767 0 0 0 35.4 40.812 Z M 183.525 49.212 Q 178.275 49.212 175.313 46.025 A 12.365 12.365 0 0 1 172.353 37.491 A 21.485 21.485 0 0 1 172.35 37.137 Q 172.35 31.512 174.75 27.087 Q 177.15 22.662 181.35 20.112 Q 185.55 17.562 190.875 17.562 Q 194.475 17.562 196.575 18.762 Q 198.675 19.962 198.675 22.062 Q 198.675 23.937 196.875 25.737 Q 196.2 26.412 195.113 26.975 Q 194.025 27.537 193.425 27.537 Q 192.75 27.537 192.3 27.012 Q 191.55 26.187 190.35 25.437 Q 189.15 24.687 186.975 24.687 Q 183.3 24.687 180.975 27.2 Q 178.65 29.712 178.65 33.762 Q 178.65 37.437 180.75 39.687 Q 182.85 41.937 186.3 41.937 Q 188.1 41.937 190.238 41.3 Q 192.375 40.662 194.025 39.462 Q 194.85 38.712 195.75 38.712 Q 197.25 38.712 197.25 40.587 Q 197.25 43.062 194.775 45.312 Q 192.9 47.037 189.788 48.125 Q 186.675 49.212 183.525 49.212 Z M 71.325 49.212 Q 66.15 49.212 63.038 46.4 A 10.517 10.517 0 0 1 59.926 38.283 A 19.041 19.041 0 0 1 59.925 38.112 Q 59.925 35.562 60.638 33.162 Q 61.35 30.762 62.55 28.662 Q 61.35 29.412 60.75 29.412 Q 59.85 29.412 59.513 28.4 Q 59.175 27.387 59.175 26.412 Q 59.175 24.687 59.888 23.675 Q 60.6 22.662 61.275 22.137 A 21.008 21.008 0 0 1 65.41 19.574 A 47.508 47.508 0 0 1 66.225 19.175 Q 69.6 17.562 74.325 17.562 A 14.024 14.024 0 0 1 83.463 20.368 A 11.041 11.041 0 0 1 84.338 21.162 A 13.429 13.429 0 0 1 87.895 30.713 A 22.76 22.76 0 0 1 87.9 31.212 Q 87.9 36.237 85.8 40.325 Q 83.7 44.412 79.988 46.812 Q 76.275 49.212 71.325 49.212 Z M 73.65 41.562 Q 77.4 41.562 79.988 39.2 Q 82.575 36.837 82.575 32.937 Q 82.575 28.887 79.95 27.162 Q 77.325 25.437 73.875 25.437 Q 72.3 25.437 71.025 25.737 Q 69.75 26.037 68.625 26.487 Q 67.575 27.987 66.75 29.862 Q 65.925 31.737 65.925 33.987 Q 65.925 37.737 68.175 39.65 Q 70.425 41.562 73.65 41.562 Z M 6.9 48.987 Q 4.65 48.987 3.375 47.75 Q 2.1 46.512 2.1 43.512 Q 2.1 41.787 2.438 40.137 Q 2.775 38.487 3.225 36.912 Q 3.75 35.262 4.088 33.537 Q 4.425 31.812 4.425 29.862 Q 4.425 28.512 4.05 27.275 Q 3.675 26.037 2.4 25.437 Q 1.425 24.912 0.713 24.35 Q 0 23.787 0 22.887 Q 0 21.837 0.975 20.637 Q 1.95 19.437 3.563 18.575 Q 5.175 17.712 6.9 17.712 Q 8.775 17.712 9.638 18.687 Q 10.5 19.662 10.8 21.162 Q 11.1 22.662 11.1 24.237 Q 11.1 26.637 10.725 28.925 Q 10.35 31.212 9.975 33.162 Q 9.675 34.587 9.525 35.787 Q 9.375 36.987 9.375 38.037 Q 9.375 39.912 10.275 40.85 Q 11.175 41.787 12.825 42.612 Q 13.5 42.987 13.5 43.737 Q 13.5 44.337 12.9 45.612 Q 12.3 46.887 10.838 47.937 Q 9.375 48.987 6.9 48.987 Z M 6.825 10.962 Q 4.725 10.887 3.45 9.687 Q 2.175 8.487 2.175 6.312 Q 2.25 3.987 3.75 2.525 A 4.947 4.947 0 0 1 7.351 1.134 A 6.974 6.974 0 0 1 7.575 1.137 Q 9.75 1.212 10.988 2.412 A 4.157 4.157 0 0 1 12.155 5.542 A 7.121 7.121 0 0 1 12.15 5.787 Q 12.075 8.037 10.65 9.5 Q 9.225 10.962 6.825 10.962 Z"/>
        </clipPath>
        <linearGradient id="text-fill">
            <stop offset="0%" stop-color="#1116"/>
            <stop offset="7%" stop-color="#1116"/>
            <stop offset="8%" stop-color="#8886"/>
            <stop offset="100%" stop-color="#8886"/>
        </linearGradient>
    </defs>
    <rect x="0" y="0" width="234.201" height="68.94" fill="url(#text-fill)" clip-path="url(#text-cut)"/>
    <g clip-path="url(#text-cut)" opacity="0.8">
        <g>
            <path transform="translate(-331.58, 2) scale(0.1, 0.1)"
                  d="M117.33333332 245.33333375C439.46666676-3.57333344 920.9600002-3.57333344 1561.7600002 245.33333375 2202.66666707 494.24 2787.83999957 494.24 3317.33333301 245.33333375v586.66666594a160.00000031 160.00000031 0 0 1-159.99999938 160.00000031H277.33333363a160.00000031 160.00000031 0 0 1-160.00000031-160.00000031V245.33333375z"
                  fill="#55A1FF"/>
            <path transform="translate(-11.733333332, 2) scale(0.1, 0.1)"
                  d="M117.33333332 245.33333375C439.46666676-3.57333344 920.9600002-3.57333344 1561.7600002 245.33333375 2202.66666707 494.24 2787.83999957 494.24 3317.33333301 245.33333375v586.66666594a160.00000031 160.00000031 0 0 1-159.99999938 160.00000031H277.33333363a160.00000031 160.00000031 0 0 1-160.00000031-160.00000031V245.33333375z"
                  fill="#55A1FF"/>
            <animateTransform attributeName="transform"
                              type="translate"
                              values="0 0;40 -2;80 -4;120 -1;160 1;200 2;240 0;280 -1;320 0"
                              begin="0s" dur="1.8s"
                              repeatCount="indefinite"/>
        </g>
    </g>
</svg>